<svg width="693" height="401" viewBox="0 0 693 401" fill="none" xmlns="http://www.w3.org/2000/svg">
<g filter="url(#filter0_i_67_252)">
<rect x="466" width="227" height="227" fill="#202020"/>
</g>
<g filter="url(#filter1_i_67_252)">
<path d="M173.5 54L323.755 314.25H23.2446L173.5 54Z" fill="#202020"/>
</g>
<path d="M244.718 144V96.6083H248.848L281.548 137.771H279.382V96.6083H284.324V144H280.194L247.562 102.837H249.728V144H244.718ZM292.21 144L313.874 96.6083H318.817L340.481 144H335.201L315.296 99.5195H317.327L297.423 144H292.21ZM300.74 131.34L302.23 127.278H329.785L331.274 131.34H300.74ZM361.388 144.406C357.867 144.406 354.482 143.842 351.232 142.714C348.028 141.54 345.545 140.051 343.785 138.245L345.749 134.386C347.418 136.011 349.653 137.388 352.451 138.516C355.295 139.599 358.273 140.141 361.388 140.141C364.367 140.141 366.781 139.78 368.632 139.058C370.528 138.29 371.904 137.275 372.762 136.011C373.664 134.747 374.116 133.348 374.116 131.814C374.116 129.963 373.574 128.474 372.491 127.345C371.453 126.217 370.076 125.337 368.361 124.705C366.646 124.028 364.75 123.441 362.674 122.945C360.598 122.448 358.522 121.929 356.445 121.387C354.369 120.801 352.451 120.033 350.691 119.086C348.976 118.138 347.576 116.896 346.493 115.362C345.455 113.782 344.936 111.729 344.936 109.201C344.936 106.854 345.545 104.71 346.764 102.769C348.028 100.783 349.946 99.2036 352.519 98.0301C355.091 96.8115 358.386 96.2021 362.403 96.2021C365.066 96.2021 367.707 96.5858 370.324 97.3531C372.942 98.0752 375.199 99.0908 377.095 100.4L375.402 104.394C373.371 103.04 371.205 102.047 368.903 101.415C366.646 100.783 364.457 100.467 362.336 100.467C359.492 100.467 357.145 100.851 355.295 101.618C353.444 102.386 352.067 103.424 351.165 104.733C350.307 105.996 349.878 107.441 349.878 109.066C349.878 110.916 350.397 112.406 351.436 113.534C352.519 114.662 353.918 115.542 355.633 116.174C357.393 116.806 359.312 117.37 361.388 117.867C363.464 118.363 365.518 118.905 367.549 119.492C369.625 120.078 371.521 120.846 373.236 121.794C374.996 122.696 376.395 123.915 377.433 125.45C378.516 126.984 379.058 128.993 379.058 131.475C379.058 133.777 378.426 135.921 377.162 137.907C375.899 139.848 373.958 141.427 371.34 142.646C368.767 143.819 365.45 144.406 361.388 144.406Z" fill="white"/>
<path d="M234.5 143.5V93L168 159.5H301" stroke="white" stroke-width="4"/>
<path d="M305.145 127H327.598L330.5 133.5L303.145 131.5L305.145 127Z" fill="#202020"/>
<path d="M243 126L256 147H243L243 126Z" fill="#202020"/>
<path d="M228 126L241 147H228L228 126Z" fill="#202020"/>
<path d="M328 132L347 144L335.001 144L328 132Z" fill="#202020"/>
<path d="M421.186 119.559H446.236V123.892H421.186V119.559ZM421.728 144H416.718V96.6083H449.215V100.941H421.728V144ZM459.561 144V96.6083H464.571V144H459.561ZM479.991 144V96.6083H497.729C501.746 96.6083 505.199 97.2628 508.087 98.5717C510.976 99.8355 513.187 101.686 514.722 104.123C516.302 106.515 517.092 109.427 517.092 112.857C517.092 116.197 516.302 119.086 514.722 121.523C513.187 123.915 510.976 125.765 508.087 127.074C505.199 128.338 501.746 128.97 497.729 128.97H482.766L485.001 126.668V144H479.991ZM512.352 144L500.166 126.804H505.582L517.836 144H512.352ZM485.001 127.074L482.766 124.705H497.593C502.332 124.705 505.921 123.667 508.358 121.591C510.84 119.514 512.082 116.603 512.082 112.857C512.082 109.066 510.84 106.132 508.358 104.056C505.921 101.979 502.332 100.941 497.593 100.941H482.766L485.001 98.5717V127.074ZM575.66 144V126.397L576.811 129.512L556.704 96.6083H562.052L579.723 125.517H576.879L594.549 96.6083H599.559L579.452 129.512L580.603 126.397V144H575.66Z" fill="white"/>
<path d="M529 96L566 144H529.001L529 96Z" fill="white"/>
<path d="M534 87L571 138.75H534.001L534 87Z" fill="#202020"/>
<path d="M485 104L530 170H485.001L485 104Z" fill="#202020"/>
<path d="M466 111L453 90L466 90L466 111Z" fill="#202020"/>
<path d="M477 130L490 151H477L477 130Z" fill="#202020"/>
<defs>
<filter id="filter0_i_67_252" x="466" y="0" width="237" height="237" filterUnits="userSpaceOnUse" color-interpolation-filters="sRGB">
<feFlood flood-opacity="0" result="BackgroundImageFix"/>
<feBlend mode="normal" in="SourceGraphic" in2="BackgroundImageFix" result="shape"/>
<feColorMatrix in="SourceAlpha" type="matrix" values="0 0 0 0 0 0 0 0 0 0 0 0 0 0 0 0 0 0 127 0" result="hardAlpha"/>
<feOffset dx="15" dy="15"/>
<feGaussianBlur stdDeviation="5"/>
<feComposite in2="hardAlpha" operator="arithmetic" k2="-1" k3="1"/>
<feColorMatrix type="matrix" values="0 0 0 0 0 0 0 0 0 0 0 0 0 0 0 0 0 0 0.25 0"/>
<feBlend mode="normal" in2="shape" result="effect1_innerShadow_67_252"/>
</filter>
<filter id="filter1_i_67_252" x="23.2446" y="54" width="304.511" height="260.25" filterUnits="userSpaceOnUse" color-interpolation-filters="sRGB">
<feFlood flood-opacity="0" result="BackgroundImageFix"/>
<feBlend mode="normal" in="SourceGraphic" in2="BackgroundImageFix" result="shape"/>
<feColorMatrix in="SourceAlpha" type="matrix" values="0 0 0 0 0 0 0 0 0 0 0 0 0 0 0 0 0 0 127 0" result="hardAlpha"/>
<feOffset dx="15"/>
<feGaussianBlur stdDeviation="2"/>
<feComposite in2="hardAlpha" operator="arithmetic" k2="-1" k3="1"/>
<feColorMatrix type="matrix" values="0 0 0 0 0 0 0 0 0 0 0 0 0 0 0 0 0 0 0.25 0"/>
<feBlend mode="normal" in2="shape" result="effect1_innerShadow_67_252"/>
</filter>
</defs>
</svg>
